<svg id="logosandtypes_com" xmlns="http://www.w3.org/2000/svg" viewBox="0 0 150 150"><style>.st1{fill:#d71920}</style><path d="M0 0h150v150H0V0z" fill="none"/><path class="st1" d="M24.4 86.6v-.2c0-.2.2-.4.2-.6s.2-.4.2-.6c0-.1.1-.2.2-.2 1.3-3 2.7-5.9 4.3-8.7.2-.4.4-1 .6-1.4h-7.4l1.9-4.1c9.8-2.5 18.7-7.5 26-14.4h5.4l-6.6 14.2h10.7L58 74.8H47.3s-5 9.9-6.6 17.1c-1.2 8 0 13.8 7 16.1 4.3 1.4 9.9 1 15.9-.6C77.4 103.1 92 93.6 102.7 81c17.7-20.6 18.2-41.7.8-47-11.1-3.5-26.8.4-41.2 9.1 18.2-11.8 37.9-17.1 51.5-12.8 2.4.7 4.6 1.8 6.6 3.3C109 20.4 92.4 12.9 74.9 13 40.8 13 13.1 40.6 13 74.7v.2c-.1 12.1 3.5 24 10.3 34-2.4-6-2-13.6 1.1-22.3z"/><path class="st1" d="M127.3 42.1c4.1 11.1-1 28-15.3 44.5-21.4 25-55.3 40-75.7 33.8-2.4-.7-4.6-1.8-6.6-3.3 23.3 25 62.4 26.3 87.4 3.1 21.7-20.2 26-53 10.2-78.1z"/></svg>